# xmcd
#
# Track frame offsets: 
#        150
#        23540
#        43318
#        68580
#        93525
#        114503
#        136285
#        158380
#        180050
#        207328
#        228918
#        258168
#        278440
#
# Disc length: 3903 seconds
#
# Revision: 2
# Processed by: cddbd v1.5.2PL0 Copyright (c) Steve Scherf et al.
# Submitted via: ExactAudioCopy v1.0b3
#
DISCID=990f3d0d
DTITLE=Benita Arterberry - Thank You
DYEAR=1991
DGENRE=Soul
TTITLE0=It's You
TTITLE1=All Or Nothing
TTITLE2=Changed
TTITLE3=Love Don't Live Here
TTITLE4=Free And Easy
TTITLE5=Give Me Love
TTITLE6=Reach Out With Love
TTITLE7=A Moment Away
TTITLE8=Call Me Up
TTITLE9=Can We Start Over
TTITLE10=It's Always Been About You
TTITLE11=I Love You More (Today Than Yesterday)
TTITLE12=Thank You
EXTD=
EXTT0=
EXTT1=
EXTT2=
EXTT3=
EXTT4=
EXTT5=
EXTT6=
EXTT7=
EXTT8=
EXTT9=
EXTT10=
EXTT11=
EXTT12=
PLAYORDER=
